PathFileType	4	(X/Y/Z)	Patient4_TMGait_0pt4_02_right_39.trc.trc
DataRate	CameraRate	NumFrames	NumMarkers	Units	OrigDataRate	OrigDataStartFrame	OrigNumFrames
76.086956521739	76.086956521739	4	33	mm	76.086956521739	71	       141
Frame#	Time	Sacral			L.Shoulder			Chest			R.Shoulder			Neck			R.ASIS			L.ASIS			R.Thigh.Superior			R.Thigh.Lateral			R.Thigh.Inferior			R.Patella			L.Thigh.Superior			L.Thigh.Lateral			L.Thigh.Inferior			L.Patella			L.Shank.Superior			L.Shank.Lateral			L.Shank.Inferior			R.Shank.Superior			R.Shank.Lateral			R.Shank.Inferior			R.Heel			R.Midfoot.Superior			R.Midfoot.Lateral			R.Toe			L.Heel			L.Midfoot.Lateral			L.Midfoot.Superior			L.Toe			L.Elbow			L.Wrist			R.Elbow			R.Wrist			
		X1	Y1	Z1	X2	Y2	Z2	X3	Y3	Z3	X4	Y4	Z4	X5	Y5	Z5	X6	Y6	Z6	X7	Y7	Z7	X8	Y8	Z8	X9	Y9	Z9	X10	Y10	Z10	X11	Y11	Z11	X12	Y12	Z12	X13	Y13	Z13	X14	Y14	Z14	X15	Y15	Z15	X16	Y16	Z16	X17	Y17	Z17	X18	Y18	Z18	X19	Y19	Z19	X20	Y20	Z20	X21	Y21	Z21	X22	Y22	Z22	X23	Y23	Z23	X24	Y24	Z24	X25	Y25	Z25	X26	Y26	Z26	X27	Y27	Z27	X28	Y28	Z28	X29	Y29	Z29	X30	Y30	Z30	X31	Y31	Z31	X32	Y32	Z32	X33	Y33	Z33	

71	52.370000000000	826.606433479174	1010.813650493506	561.410555700396	982.580898445956	1431.067730135654	352.890275308793	1115.966416199369	1357.972244859055	487.719606890707	1077.036430219072	1434.725976851326	675.330948033089	1000.878852317077	1493.102338263460	508.635620228988	1068.611504079427	931.457156989337	631.233545192766	1006.153777182432	966.684520165487	364.314391793964	1069.728153056705	723.394047221430	598.331328930743	980.591891774025	626.759409719807	674.049063212691	1034.365254572302	563.841844896126	586.116386809136	1019.826766360472	478.650439478671	595.083604001615	1081.063683280262	775.798517460494	379.292025368062	1015.987558662290	649.852809514266	309.719819184078	1122.272649261595	586.772139277662	358.577740690139	1144.911059688846	522.938029987490	354.439656730706	1126.924638707625	451.557356216177	343.851154002566	1055.476529503056	324.419430135791	294.067466384134	1143.810486908844	222.460848679332	341.153640746823	981.884958340242	393.384062860438	606.476431776195	903.077032795924	300.209498997316	675.120148381950	926.572236365132	200.399220358117	610.977328495865	775.500462862938	43.261493541465	590.493721075300	946.679556266115	95.733550410403	622.820116836616	859.187619582944	36.669701292518	664.453542863262	1067.338970363336	42.436811826184	651.641691664141	1060.265045386423	44.524430407481	380.392751438057	1130.129867942026	48.931062118200	297.028958368829	1202.341464096030	125.896340011923	315.763316996433	1333.976618782884	96.112286928076	282.051432946358	901.302243875996	1088.514772184224	234.627090802530	985.456806025921	841.123530554167	196.608218625902	1175.134733653974	1096.247785465851	772.940139518655	1390.469079319148	1058.155264481667	644.311149758035	
72	52.383142857143	827.573798187935	1009.562620587681	558.503983764181	981.831266153667	1430.182069935557	350.263674796059	1115.248776667788	1357.763557089550	485.398668407444	1075.494360333807	1434.227308309099	672.954351306004	999.644065397648	1492.329895739472	506.123355308500	1069.532866335383	930.846808747420	629.368986794621	1007.811301405623	965.305901247527	362.182521262935	1069.035520966554	722.259328889085	597.105907420477	978.821273351417	626.199544772761	672.758789422714	1032.281602889023	562.703513305324	585.182918609730	1017.053843811489	477.687030330343	594.151873557698	1082.106232175694	773.393104971218	377.050167599268	1014.812519454534	647.138709516606	309.411851951932	1121.217229721292	584.020411113699	357.639120601351	1142.500324110410	519.289467641648	354.369203482662	1123.628509054000	447.546685097674	344.273980712722	1049.561212291555	321.302331934228	295.905760134359	1136.346690553151	218.173465418961	343.175980336075	978.461601445131	392.640617806841	605.681327323102	899.163018248344	300.172690091702	674.741265633067	921.938134250571	200.061835921537	610.719050347286	770.184168249613	43.223794953097	590.528418955947	941.368544171705	95.712928240438	622.841711903489	853.873413481799	36.622091856572	664.504067480464	1062.010047954975	42.377188887674	651.667847000703	1049.258690973698	42.904927036130	383.636179425068	1118.766228356422	45.566092244074	299.829725150570	1193.127633434778	120.301922723564	318.357289638576	1323.851813510684	86.861819071451	283.891973193679	901.607075050147	1087.497508723613	231.869441797025	987.444759146523	840.646832107693	193.925271119412	1174.563277503942	1095.075118237612	767.714888584221	1388.761978457487	1059.729605119555	636.658353105093	
73	52.396285714286	828.642900643591	1008.252876611663	555.366326251303	981.243462890033	1429.217678586604	347.394753173606	1114.618223068219	1357.545589947128	482.935084676513	1073.888420404913	1433.684845737539	670.427582674628	998.460310984688	1491.518504305832	503.397964238799	1070.573352385097	930.199913327508	627.390708002188	1009.687611237259	963.934615951479	359.955158390026	1068.708903011403	721.111721005953	595.843399471401	977.374084581952	625.592576707254	671.298131540909	1030.626984444437	561.538203963435	584.125417192206	1014.695756649174	476.593893198630	593.050903991126	1083.202444802447	770.783076260725	375.013970716718	1013.865661614316	644.515737173537	309.017145764098	1120.117151644501	581.166903130978	357.053972684711	1139.943824433273	515.550413740925	354.637511344260	1120.286678547355	443.541057076683	344.809705523820	1043.829720348791	318.213980845688	297.535336287438	1128.925507647395	213.938048307564	345.229552786307	975.390132630383	391.839955234390	604.760217692068	895.503922927414	300.161951051790	674.272388401640	917.441862392697	199.715857250702	610.406997005695	764.878531676619	43.271099365958	590.585897497202	936.082997285242	95.704348944642	622.845010137621	848.579480432339	36.615445879752	664.550090100968	1056.707312269410	42.270753859047	651.703673046757	1038.211055987000	41.381077857307	386.503432085482	1107.552152130091	42.492819875809	302.421967837988	1184.003961994583	114.856926327333	321.148307452713	1313.875871197358	77.772451667213	286.205655158344	902.178716057661	1086.353272976923	228.936964779766	989.562451498965	840.003871799978	191.119713164350	1173.445300050628	1093.737808450803	762.613742160816	1386.527120884253	1060.351197252781	629.343976171087	
74	52.409428571429	829.757907550628	1006.953120922444	552.049739510531	980.830351632550	1428.228288411665	344.308528313592	1114.092133913547	1357.342432487219	480.334007177096	1072.284001347605	1433.143851505620	667.755501944696	997.365488407121	1490.722397429727	500.476638648996	1071.681001301959	929.551289137999	625.273347036876	1011.680019948548	962.672520436811	357.627040509952	1068.758373892772	719.995874366849	594.484836085177	976.310423211444	624.963341277003	669.636394929598	1029.461447203232	560.377948777572	582.897393360611	1012.833407867061	475.371770060017	591.743878548944	1084.312641699762	768.131039028830	373.185376040499	1013.201227319938	642.140770901909	308.470838750652	1119.033835180074	578.397020699652	356.772688653024	1137.372166363730	511.955058185120	355.142359278885	1117.074346385631	439.778675812243	345.355947807102	1038.602486118666	315.336581444545	298.792030156105	1121.922292592366	210.008495406131	347.159412145287	972.741003109979	391.003355914108	603.686439874213	892.156706831524	300.209712073672	673.686855651998	913.120077873589	199.392489008169	610.027751196328	759.592872228990	43.472502508777	590.671945175828	930.848994718512	95.722993532722	622.830541860076	843.318982465828	36.685284876499	664.587541163909	1051.442379635138	42.108497502287	651.748463446470	1027.681498481458	40.066573184720	388.871006784004	1097.019636792606	39.895448983509	304.662230393520	1175.394107510049	109.886840510463	323.933126241654	1304.504659580989	69.373734093240	288.753672521492	903.043684607103	1085.131184988236	225.854978798989	991.779171894071	839.225939837005	188.197079584267	1171.807338820712	1092.280080503080	757.691244900684	1383.798558048321	1059.965619671196	622.407959169812	
